<svg xmlns="http://www.w3.org/2000/svg" width="24.003" height="20.247" viewBox="0 0 24.003 20.247"><g transform="translate(-1866.999 -21.849)"><g transform="translate(0 6.096)"><path d="M6621.541-1421.789h1.656a.9.9,0,0,1,.887,1.005l-1.04,8.865a.9.9,0,0,1-.887.794h-7.067" transform="translate(-4734.09 1446.124)" fill="none" stroke="#fff" stroke-linecap="round" stroke-miterlimit="10" stroke-width="2"/><line x1="2.932" y1="9.675" transform="translate(1881.494 17)" fill="none" stroke="#fff" stroke-linecap="round" stroke-miterlimit="10" stroke-width="2"/><line x2="1.3" transform="translate(1879 24.335)" fill="none" stroke="#fff" stroke-linecap="round" stroke-miterlimit="10" stroke-width="2"/><path d="M6602.639-1421.789h-1.655a.9.9,0,0,0-.887,1.005l1.04,8.865a.9.9,0,0,0,.887.794h12.063" transform="translate(-4732.09 1446.124)" fill="none" stroke="#fff" stroke-linecap="round" stroke-miterlimit="10" stroke-width="2"/><line y1="9.675" x2="2.932" transform="translate(1873.575 17)" fill="none" stroke="#fff" stroke-linecap="round" stroke-miterlimit="10" stroke-width="2"/><line x1="1.3" transform="translate(1877.7 24.335)" fill="none" stroke="#fff" stroke-linecap="round" stroke-miterlimit="10" stroke-width="2"/></g></g></svg>