<svg xmlns="http://www.w3.org/2000/svg" width="135.99" height="21.72" viewBox="0 0 135.99 21.72"><path d="M16.68-4.68a7.715,7.715,0,0,1-3.78.9A6.482,6.482,0,0,1,6.09-10.5a6.465,6.465,0,0,1,6.87-6.72,7.106,7.106,0,0,1,5.43,2.37l3.12-2.88a11.2,11.2,0,0,0-8.79-3.63c-6.69,0-11.55,4.53-11.55,10.86S6.03.36,12.63.36a14.491,14.491,0,0,0,8.49-2.67v-8.52H16.68ZM32.97.24c5.13,0,8.85-3.45,8.85-8.31s-3.72-8.31-8.85-8.31-8.88,3.45-8.88,8.31S27.84.24,32.97.24Zm0-3.84c-2.34,0-4.14-1.68-4.14-4.47s1.8-4.47,4.14-4.47,4.11,1.68,4.11,4.47S35.31-3.6,32.97-3.6Zm21.12-.48a3.154,3.154,0,0,1-1.89.6,1.882,1.882,0,0,1-2.01-2.13v-6.57h4.02v-3.6H50.19v-3.93H45.51v3.93H43.02v3.6h2.49v6.63c0,3.84,2.22,5.79,6.03,5.79A6.688,6.688,0,0,0,55.35-.78ZM65.16.24c5.13,0,8.85-3.45,8.85-8.31s-3.72-8.31-8.85-8.31-8.88,3.45-8.88,8.31S60.03.24,65.16.24Zm0-3.84c-2.34,0-4.14-1.68-4.14-4.47s1.8-4.47,4.14-4.47,4.11,1.68,4.11,4.47S67.5-3.6,65.16-3.6ZM84.93.24c3.39,0,6.06-1.5,7.23-4.08L88.53-5.82A3.971,3.971,0,0,1,84.9-3.6a4.13,4.13,0,0,1-4.23-4.47,4.13,4.13,0,0,1,4.23-4.47,4.025,4.025,0,0,1,3.63,2.22l3.63-1.95c-1.17-2.64-3.84-4.11-7.23-4.11-5.25,0-9,3.45-9,8.31S79.68.24,84.93.24Zm16.44-16.62a12.407,12.407,0,0,0-6.96,1.95l1.68,3.27a7.76,7.76,0,0,1,4.65-1.5c2.52,0,3.72,1.17,3.72,3.18h-3.72c-4.92,0-6.93,1.98-6.93,4.83,0,2.79,2.25,4.89,6.03,4.89,2.37,0,4.05-.78,4.92-2.25V0h4.38V-9.21C109.14-14.1,106.29-16.38,101.37-16.38Zm-.36,13.47c-1.65,0-2.64-.78-2.64-1.95,0-1.08.69-1.89,2.88-1.89h3.21V-5.1A3.448,3.448,0,0,1,101.01-2.91Zm16.83-11.1v-2.13h-4.47V0h4.68V-7.62c0-3.09,1.71-4.5,4.29-4.5.36,0,.66.03,1.05.06v-4.32C120.9-16.38,118.98-15.57,117.84-14.01ZM135.9-4.08a3.154,3.154,0,0,1-1.89.6A1.882,1.882,0,0,1,132-5.61v-6.57h4.02v-3.6H132v-3.93h-4.68v3.93h-2.49v3.6h2.49v6.63c0,3.84,2.22,5.79,6.03,5.79a6.688,6.688,0,0,0,3.81-1.02Z" transform="translate(-1.17 21.36)" fill="#fff"/></svg>