<svg xmlns="http://www.w3.org/2000/svg" width="30.03" height="17.997" viewBox="0 0 30.03 17.997"><path d="M805.953,254.191a1.157,1.157,0,0,1,1.06.7,21.846,21.846,0,0,0,3.34,5.8c.658.7,1.368.944,1.576-.28s.364-4.42-.294-5.189a1.694,1.694,0,0,0-1.046-.615.234.234,0,0,1-.129-.4c.357-.338,1.275-.769,3.642-.769.983,0,3.283-.247,3.283,1.351v4.1c0,1.292.229,3.086,1.251,2.109a16.9,16.9,0,0,0,3.584-5.971,1.16,1.16,0,0,1,1.111-.834h4.923a.784.784,0,0,1,.676,1.173,57.656,57.656,0,0,1-3.419,5.3c-1.162,1.576-1.532,1.952-.3,3.125a22.183,22.183,0,0,1,3.643,4.118,1.007,1.007,0,0,1-.86,1.523h-4.326a2.555,2.555,0,0,1-1.879-.825c-.613-.664-1.478-1.6-2.132-2.274-1.13-1.173-2.268-.415-2.268,1.36v.663a1.071,1.071,0,0,1-1.067,1.076h-1.549c-6.035,0-9.389-6-11.359-9.75-1.138-2.167-1.883-3.66-2.309-4.536a.659.659,0,0,1,.588-.95Z" transform="translate(-800.019 -252.43)" fill="none" stroke="#fff" stroke-miterlimit="10" stroke-width="2"/></svg>